<svg xmlns="http://www.w3.org/2000/svg" xmlns:xlink="http://www.w3.org/1999/xlink" width="1920" zoomAndPan="magnify" viewBox="0 0 1440 809.999993" height="1080" preserveAspectRatio="xMidYMid meet" version="1.0"><path fill="#100f0d" d="M 720.09375 720.941406 C 609.480469 720.941406 509.199219 676.550781 436.109375 604.632812 C 437.28125 587.417969 439.21875 570.367188 443.851562 553.691406 C 447.183594 541.835938 451.816406 530.574219 459.875 521.066406 C 469.816406 509.300781 483.160156 503.421875 497.714844 500.070312 C 513.347656 496.460938 529.167969 493.59375 544.785156 490 C 574.546875 483.113281 601.550781 470.347656 625.839844 451.808594 C 626.4375 451.382812 627.015625 451.027344 627.589844 450.65625 L 628.445312 450.078125 L 628.558594 450.300781 C 628.597656 450.375 628.632812 450.449219 628.671875 450.582031 C 648.4375 492.867188 668.222656 535.265625 688.285156 578.277344 C 691.039062 569.960938 693.589844 562.308594 696.101562 554.605469 C 698.316406 547.886719 700.4375 541.148438 702.726562 534.484375 C 702.765625 534.335938 702.800781 534.222656 702.839844 534.113281 L 699.675781 526.628906 C 699.359375 526.015625 699.078125 525.402344 698.820312 524.789062 C 698.671875 524.398438 698.539062 524.042969 698.390625 523.652344 L 698.316406 523.503906 C 695.023438 514.960938 692.398438 506.0625 688.171875 498.003906 C 683.761719 489.648438 690.3125 481.328125 697.3125 479.558594 C 698.855469 479.167969 700.476562 478.890625 702.058594 478.851562 C 714.0625 478.816406 726.085938 478.777344 738.128906 478.851562 C 742.578125 478.890625 746.558594 480.324219 749.722656 483.542969 C 753.667969 487.488281 754.449219 491.582031 752.328125 496.683594 C 749.539062 503.382812 746.671875 510.121094 743.933594 516.859375 C 743.152344 518.703125 742.726562 520.710938 742.035156 522.609375 C 741.925781 522.890625 741.851562 523.1875 741.757812 523.503906 L 740.25 527.300781 L 737.515625 534.261719 C 737.773438 535.621094 738.3125 537.015625 738.78125 538.394531 C 742.894531 550.714844 746.875 563 750.933594 575.300781 C 751.210938 576.082031 751.511719 576.863281 752.011719 578.128906 C 772.019531 535.191406 791.824219 492.699219 811.703125 450.078125 C 816.597656 453.464844 821.195312 456.796875 825.867188 459.980469 C 850.9375 476.917969 878.722656 487.023438 908.242188 492.90625 C 921.121094 495.492188 934.058594 498.117188 946.808594 501.261719 C 970.796875 507.179688 986.042969 522.535156 993.859375 545.707031 C 998.660156 560.019531 1001.324219 574.761719 1002.753906 589.707031 C 1003.257812 594.730469 1003.613281 599.757812 1003.871094 604.820312 C 930.800781 676.644531 830.59375 720.941406 720.09375 720.941406 Z M 573.316406 255.226562 C 574.640625 250.332031 576.40625 245.644531 581.507812 243.128906 C 582.289062 242.738281 582.699219 240.988281 582.753906 239.835938 C 583.3125 230.417969 583.480469 220.964844 584.261719 211.5625 C 585.863281 191.722656 589.210938 172.253906 597.625 153.976562 C 605.589844 136.6875 617.820312 123.640625 635.351562 115.691406 C 638.90625 114.09375 641.941406 111.320312 645.253906 109.160156 C 662.042969 98.308594 680.5625 92.503906 700.308594 90.304688 C 703.492188 89.953125 706.636719 89.488281 709.800781 89.058594 C 716.875 89.058594 723.964844 89.058594 731.035156 89.058594 C 737.402344 89.914062 743.785156 90.566406 750.097656 91.664062 C 769.621094 95.050781 787.46875 102.421875 803.234375 114.578125 C 803.996094 115.152344 804.796875 115.75 805.652344 116.140625 C 825.773438 125.371094 838.207031 141.359375 845.78125 161.644531 C 851.847656 177.859375 854.527344 194.71875 856.015625 211.84375 C 856.875 221.78125 857.730469 231.703125 858.640625 241.621094 C 858.699219 242.3125 858.976562 243.242188 859.460938 243.558594 C 865.9375 247.820312 867.242188 254.707031 868.097656 261.480469 C 870.253906 278.660156 867.40625 295.226562 860.558594 311.066406 C 857.523438 318.101562 853.878906 324.78125 846.582031 328.523438 C 845.816406 328.914062 845.390625 330.199219 845.019531 331.148438 C 834.109375 359.417969 819.296875 385.328125 798.523438 407.570312 C 784.136719 422.960938 767.722656 435.523438 747.488281 442.335938 C 721.117188 451.214844 696.363281 446.785156 673.023438 432.527344 C 651.246094 419.238281 634.792969 400.609375 620.871094 379.539062 C 610.988281 364.539062 603.003906 348.566406 596.601562 331.816406 C 595.914062 330.03125 594.742188 329.136719 593.25 328 C 589.769531 325.304688 586.199219 322.324219 583.777344 318.714844 C 577.339844 309.128906 574.433594 298.109375 572.648438 286.832031 C 570.972656 276.277344 570.507812 265.6875 573.316406 255.226562 Z M 720 0 C 496.339844 0 315 181.339844 315 405 C 315 518.050781 361.308594 620.269531 436.015625 693.691406 C 509.105469 765.628906 609.386719 810 720 810 C 830.5 810 930.707031 765.703125 1003.777344 693.898438 C 1078.617188 620.453125 1125 518.125 1125 405 C 1125 181.339844 943.660156 0 720 0 " fill-opacity="1" fill-rule="nonzero"/></svg>