<svg xmlns="http://www.w3.org/2000/svg" xmlns:xlink="http://www.w3.org/1999/xlink" width="1920" zoomAndPan="magnify" viewBox="0 0 1440 809.999993" height="1080" preserveAspectRatio="xMidYMid meet" version="1.0"><defs><clipPath id="a0ff4a3af0"><path d="M 206.6875 85 L 497 85 L 497 471 L 206.6875 471 Z M 206.6875 85 " clip-rule="nonzero"/></clipPath><clipPath id="acb3a93fb1"><path d="M 840 0 L 1233.4375 0 L 1233.4375 259 L 840 259 Z M 840 0 " clip-rule="nonzero"/></clipPath></defs><path fill="#040606" d="M 830.8125 157.105469 L 815.042969 181.148438 L 738.089844 290.085938 L 1028.816406 484.183594 L 1058.730469 441.050781 L 1071.632812 324.738281 L 1080.992188 310.003906 L 830.8125 157.105469 " fill-opacity="1" fill-rule="nonzero"/><path fill="#040606" d="M 623.933594 394.933594 C 623.933594 397.558594 621.800781 399.691406 619.1875 399.691406 L 618.113281 399.691406 C 615.507812 399.691406 613.382812 397.558594 613.382812 394.933594 C 613.382812 392.3125 615.507812 390.1875 618.113281 390.1875 L 619.1875 390.1875 C 621.800781 390.1875 623.933594 392.3125 623.933594 394.933594 " fill-opacity="1" fill-rule="nonzero"/><path fill="#040606" d="M 815.042969 317.332031 C 755.929688 344.808594 640.992188 350.054688 640.992188 350.054688 L 623.933594 373.308594 C 669.339844 447.199219 601.746094 488.375 590.140625 494.714844 C 578.53125 501.050781 564.957031 471.480469 564.957031 471.480469 C 564.957031 471.480469 515.839844 377.773438 521.175781 344.65625 C 526.875 309.300781 608.085938 230.777344 608.085938 230.777344 C 640.828125 215.996094 816.382812 181.148438 816.382812 181.148438 L 815.042969 317.332031 " fill-opacity="1" fill-rule="nonzero"/><path fill="#040606" d="M 528.871094 627.535156 C 516.035156 645.75 489.09375 648.9375 468.683594 634.585938 C 448.265625 620.253906 442.113281 593.839844 454.957031 575.582031 L 496.863281 515.941406 C 509.6875 497.707031 536.625 494.53125 557.023438 508.859375 C 577.449219 523.207031 583.597656 549.632812 570.777344 567.894531 L 528.871094 627.535156 " fill-opacity="1" fill-rule="nonzero"/><path fill="#040606" d="M 604.941406 678.308594 C 590.269531 699.226562 561.800781 704.519531 541.40625 690.171875 C 520.980469 675.835938 516.355469 647.28125 531.03125 626.375 L 579.050781 558.058594 C 593.730469 537.152344 622.199219 531.832031 642.621094 546.195312 C 663.023438 560.527344 667.667969 589.085938 652.984375 609.984375 L 604.941406 678.308594 " fill-opacity="1" fill-rule="nonzero"/><path fill="#040606" d="M 680.765625 729.070312 C 667.472656 747.976562 640.164062 751.691406 619.742188 737.359375 C 599.34375 723.039062 593.5625 696.050781 606.851562 677.132812 L 650.3125 615.304688 C 663.625 596.40625 690.921875 592.691406 711.347656 607.011719 C 731.769531 621.371094 737.527344 648.332031 724.230469 667.25 L 680.765625 729.070312 " fill-opacity="1" fill-rule="nonzero"/><path fill="#040606" d="M 749.152344 778.644531 C 738.152344 794.300781 713.890625 796.257812 694.984375 782.976562 C 676.113281 769.695312 669.703125 746.207031 680.71875 730.539062 L 716.738281 679.339844 C 727.722656 663.660156 751.992188 661.71875 770.878906 675 C 789.777344 688.289062 796.160156 711.75 785.148438 727.402344 L 749.152344 778.644531 " fill-opacity="1" fill-rule="nonzero"/><path fill="#040606" d="M 1023.972656 477.859375 L 751.597656 289.609375 L 706.609375 210.441406 C 705.398438 208.753906 703.457031 207.757812 701.386719 207.757812 C 695.417969 207.757812 586.945312 208.699219 572 209.199219 L 550.546875 196.925781 L 542.902344 207.363281 L 567.203125 221.261719 C 568.246094 221.863281 569.480469 222.242188 570.613281 222.105469 C 605.328125 220.9375 676.566406 220.320312 692.148438 219.914062 L 741.808594 298.015625 C 742.242188 298.617188 742.773438 299.136719 743.375 299.542969 L 1016.746094 488.480469 C 1038.601562 503.089844 1044.503906 532.753906 1029.910156 554.609375 C 1021.027344 567.890625 1006.179688 575.816406 990.171875 575.816406 C 980.761719 575.816406 971.621094 573.039062 963.691406 567.75 L 953.660156 561.210938 L 851.09375 490.324219 C 848.171875 488.300781 844.164062 489.027344 842.160156 491.957031 C 840.136719 494.875 840.871094 498.878906 843.792969 500.890625 L 946.070312 571.578125 L 960.789062 582.984375 C 981.761719 598.117188 986.882812 627.003906 972.203125 647.375 C 963.769531 659.09375 950.453125 665.8125 935.6875 665.8125 C 927.628906 665.8125 919.71875 663.648438 912.597656 659.714844 L 807.078125 586.796875 C 804.171875 584.777344 800.152344 585.492188 798.144531 588.429688 C 796.121094 591.347656 796.855469 595.351562 799.773438 597.363281 L 902.09375 668.082031 C 910.058594 683.527344 908.644531 702.292969 898.3125 716.144531 C 889.71875 727.679688 876.507812 734.300781 862.066406 734.300781 C 853.617188 734.300781 845.335938 731.957031 838.105469 727.523438 C 838.050781 727.492188 837.976562 727.511719 837.925781 727.480469 L 769.28125 680.039062 C 768.261719 680.53125 767.226562 680.878906 766.1875 681.078125 C 763.875 682.722656 761.449219 684.152344 759 685.605469 C 758.230469 686.074219 757.425781 686.46875 756.65625 686.933594 C 756.65625 686.933594 813.941406 721.675781 829.613281 737.363281 C 836.75 744.503906 832.109375 770.753906 825.222656 780 C 817.136719 790.847656 804.734375 797.074219 791.179688 797.074219 C 782.015625 797.074219 773.261719 794.164062 766.066406 788.8125 L 724.269531 755.246094 C 723.902344 754.953125 723.5 754.695312 723.085938 754.484375 C 639.300781 713.304688 519.128906 596.417969 454.949219 530.410156 L 454.386719 529.824219 C 451.203125 523.859375 428.574219 478.453125 413.558594 448.21875 C 413.101562 447.28125 412.414062 446.476562 411.574219 445.867188 L 383.417969 425.441406 L 375.832031 435.8125 L 402.75 455.34375 C 443.160156 536.71875 443.667969 537.242188 444.59375 538.199219 L 445.734375 539.375 C 510.328125 605.808594 631.289062 723.402344 716.765625 765.710938 L 758.199219 798.972656 C 767.828125 806.136719 779.230469 809.925781 791.179688 809.925781 C 808.832031 809.925781 824.980469 801.820312 835.535156 787.679688 C 844.84375 775.179688 848.242188 759.65625 845.421875 744.738281 C 850.800781 746.335938 856.402344 747.15625 862.066406 747.15625 C 880.601562 747.15625 897.574219 738.652344 908.628906 723.832031 C 918.867188 710.089844 922.328125 692.585938 918.667969 676.203125 C 924.183594 677.832031 929.914062 678.664062 935.6875 678.664062 C 954.640625 678.664062 971.753906 670.003906 982.644531 654.886719 C 997.144531 634.746094 996.640625 608.183594 983.492188 588.300781 C 985.707031 588.550781 987.578125 589.050781 990.179688 588.675781 C 1010.472656 588.675781 1029.320312 578.613281 1040.597656 561.753906 C 1059.128906 534 1051.632812 496.335938 1023.972656 477.859375 " fill-opacity="1" fill-rule="nonzero"/><path fill="#040606" d="M 499.445312 157.191406 L 337.652344 439.492188 L 352.878906 450.625 L 543.78125 189.609375 L 499.445312 157.191406 " fill-opacity="1" fill-rule="nonzero"/><g clip-path="url(#a0ff4a3af0)"><path fill="#040606" d="M 334.460938 327.089844 C 326.675781 332 316.394531 329.675781 311.488281 321.894531 C 306.566406 314.105469 308.90625 303.84375 316.683594 298.917969 C 324.457031 294.007812 334.742188 296.320312 339.652344 304.101562 C 344.566406 311.886719 342.238281 322.164062 334.460938 327.089844 Z M 308.738281 377.050781 C 300.953125 381.96875 290.664062 379.644531 285.75 371.863281 C 280.84375 364.09375 283.175781 353.8125 290.949219 348.90625 C 298.730469 343.996094 309.011719 346.308594 313.921875 354.0625 C 318.835938 361.859375 316.507812 372.152344 308.738281 377.050781 Z M 283.007812 427.023438 C 275.226562 431.941406 264.945312 429.632812 260.027344 421.835938 C 255.113281 414.054688 257.441406 403.785156 265.21875 398.863281 C 273.003906 393.957031 283.277344 396.261719 288.207031 404.050781 C 293.113281 411.847656 290.785156 422.113281 283.007812 427.023438 Z M 393.898438 85.085938 L 206.660156 411.804688 L 309.25 470.601562 L 496.5 143.882812 L 393.898438 85.085938 " fill-opacity="1" fill-rule="nonzero"/></g><path fill="#040606" d="M 1103.597656 284.742188 C 1096.027344 284.402344 1090.148438 277.992188 1090.480469 270.4375 C 1090.820312 262.867188 1097.253906 256.980469 1104.808594 257.3125 C 1112.378906 257.652344 1118.242188 264.070312 1117.902344 271.640625 C 1117.585938 279.210938 1111.160156 285.070312 1103.597656 284.742188 Z M 841.851562 119.996094 L 827.5625 143.375 L 1107.722656 314.597656 L 1145.8125 252.304688 L 841.851562 119.996094 " fill-opacity="1" fill-rule="nonzero"/><g clip-path="url(#acb3a93fb1)"><path fill="#040606" d="M 1167.292969 207.699219 C 1153.210938 207.082031 1142.355469 195.195312 1142.972656 181.121094 C 1143.59375 167.0625 1155.472656 156.167969 1169.546875 156.796875 C 1183.597656 157.429688 1194.488281 169.324219 1193.859375 183.382812 C 1193.242188 197.441406 1181.351562 208.324219 1167.292969 207.699219 Z M 888.121094 0.078125 L 840.917969 108.492188 L 1186.207031 258.785156 L 1233.410156 150.382812 L 888.121094 0.078125 " fill-opacity="1" fill-rule="nonzero"/></g></svg>