<svg xmlns="http://www.w3.org/2000/svg" xmlns:xlink="http://www.w3.org/1999/xlink" width="1920" zoomAndPan="magnify" viewBox="0 0 1440 809.999993" height="1080" preserveAspectRatio="xMidYMid meet" version="1.0"><defs><clipPath id="917f6c6d18"><path d="M 1034 276 L 1120.3125 276 L 1120.3125 363 L 1034 363 Z M 1034 276 " clip-rule="nonzero"/></clipPath><clipPath id="8527369bb6"><path d="M 1034 447 L 1120.3125 447 L 1120.3125 534 L 1034 534 Z M 1034 447 " clip-rule="nonzero"/></clipPath><clipPath id="206104901f"><path d="M 320.0625 276 L 407 276 L 407 363 L 320.0625 363 Z M 320.0625 276 " clip-rule="nonzero"/></clipPath><clipPath id="7e5669c9d5"><path d="M 320.0625 447 L 407 447 L 407 534 L 320.0625 534 Z M 320.0625 447 " clip-rule="nonzero"/></clipPath></defs><path fill="#000000" d="M 851.453125 560.878906 L 588.449219 560.878906 C 561.386719 560.878906 539.074219 538.578125 539.074219 511.527344 L 539.074219 298.472656 C 539.074219 270.949219 561.386719 248.648438 588.449219 248.648438 L 851.453125 248.648438 C 878.988281 248.648438 901.300781 270.949219 901.300781 298.472656 L 901.300781 511.527344 C 901.300781 538.578125 878.988281 560.878906 851.453125 560.878906 Z M 597.46875 462.179688 C 596.519531 462.179688 595.570312 462.179688 594.617188 461.703125 C 590.347656 460.28125 588.449219 455.535156 590.347656 451.265625 L 607.4375 408.558594 L 607.4375 408.085938 L 638.296875 331.210938 C 638.296875 331.210938 638.296875 330.738281 638.296875 330.738281 C 638.769531 329.789062 639.246094 328.839844 640.195312 328.367188 C 640.667969 327.417969 641.617188 326.941406 642.566406 326.46875 C 642.566406 326.46875 642.566406 326.46875 643.042969 326.46875 C 643.992188 325.992188 644.464844 325.992188 645.417969 325.992188 C 646.367188 325.992188 647.316406 325.992188 648.265625 326.46875 C 648.265625 326.46875 648.738281 326.46875 648.738281 326.46875 C 649.6875 326.941406 650.636719 327.417969 651.113281 328.367188 C 652.0625 328.839844 652.539062 329.789062 653.011719 330.738281 C 653.011719 330.738281 653.011719 331.210938 653.011719 331.210938 L 683.871094 408.085938 L 683.871094 408.558594 L 700.960938 451.265625 C 702.386719 455.535156 700.484375 460.28125 696.6875 461.703125 C 692.414062 463.128906 687.667969 461.230469 686.242188 457.433594 L 671.050781 419.472656 L 620.253906 419.472656 L 605.0625 457.433594 C 603.640625 460.28125 600.789062 462.179688 597.46875 462.179688 Z M 778.34375 462.652344 L 736.089844 462.652344 C 731.820312 462.652344 728.496094 459.332031 728.496094 455.0625 C 728.496094 450.316406 731.820312 446.996094 736.089844 446.996094 L 770.273438 446.996094 L 770.273438 341.175781 L 736.089844 341.175781 C 731.820312 341.175781 728.496094 337.855469 728.496094 333.585938 C 728.496094 328.839844 731.820312 325.519531 736.089844 325.519531 L 820.121094 325.519531 C 824.394531 325.519531 828.191406 328.839844 828.191406 333.585938 C 828.191406 337.855469 824.394531 341.175781 820.121094 341.175781 L 785.9375 341.175781 L 785.9375 446.996094 L 820.121094 446.996094 C 824.394531 446.996094 828.191406 450.316406 828.191406 455.0625 C 828.191406 459.332031 824.394531 462.652344 820.121094 462.652344 Z M 664.878906 403.339844 L 645.417969 355.414062 L 626.425781 403.339844 Z M 664.878906 403.339844 " fill-opacity="1" fill-rule="evenodd"/><path fill="#000000" d="M 678.171875 264.78125 C 673.902344 264.78125 670.101562 260.984375 670.101562 256.714844 L 670.101562 77.820312 C 670.101562 73.550781 673.902344 69.753906 678.171875 69.753906 C 682.445312 69.753906 685.769531 73.550781 685.769531 77.820312 L 685.769531 256.714844 C 685.769531 260.984375 682.445312 264.78125 678.171875 264.78125 Z M 678.171875 264.78125 " fill-opacity="1" fill-rule="evenodd"/><path fill="#000000" d="M 678.171875 85.886719 C 654.4375 85.886719 634.972656 66.433594 634.972656 42.707031 C 634.972656 19.457031 654.4375 0 678.171875 0 C 701.910156 0 720.898438 19.457031 720.898438 42.707031 C 720.898438 66.433594 701.910156 85.886719 678.171875 85.886719 Z M 678.171875 85.886719 " fill-opacity="1" fill-rule="evenodd"/><path fill="#000000" d="M 762.203125 264.78125 C 757.929688 264.78125 754.132812 260.984375 754.132812 256.714844 L 754.132812 182.6875 C 754.132812 178.417969 757.929688 174.621094 762.203125 174.621094 C 766.472656 174.621094 770.273438 178.417969 770.273438 182.6875 L 770.273438 256.714844 C 770.273438 260.984375 766.472656 264.78125 762.203125 264.78125 Z M 762.203125 264.78125 " fill-opacity="1" fill-rule="evenodd"/><path fill="#000000" d="M 762.203125 190.753906 C 738.464844 190.753906 719.476562 171.300781 719.476562 147.574219 C 719.476562 124.324219 738.464844 104.867188 762.203125 104.867188 C 785.9375 104.867188 804.929688 124.324219 804.929688 147.574219 C 804.929688 171.300781 785.9375 190.753906 762.203125 190.753906 Z M 762.203125 190.753906 " fill-opacity="1" fill-rule="evenodd"/><path fill="#000000" d="M 846.230469 264.78125 C 841.957031 264.78125 838.160156 260.984375 838.160156 256.714844 L 838.160156 140.929688 C 838.160156 117.679688 857.148438 98.699219 880.410156 98.699219 L 930.734375 98.699219 C 935.007812 98.699219 938.804688 102.496094 938.804688 106.765625 C 938.804688 111.035156 935.007812 114.832031 930.734375 114.832031 L 880.410156 114.832031 C 866.167969 114.832031 854.300781 126.222656 854.300781 140.929688 L 854.300781 256.714844 C 854.300781 260.984375 850.503906 264.78125 846.230469 264.78125 Z M 846.230469 264.78125 " fill-opacity="1" fill-rule="evenodd"/><path fill="#000000" d="M 965.863281 149.472656 C 942.128906 149.472656 922.664062 130.492188 922.664062 106.765625 C 922.664062 83.039062 942.128906 64.058594 965.863281 64.058594 C 989.601562 64.058594 1008.589844 83.039062 1008.589844 106.765625 C 1008.589844 130.492188 989.601562 149.472656 965.863281 149.472656 Z M 965.863281 149.472656 " fill-opacity="1" fill-rule="evenodd"/><path fill="#000000" d="M 594.144531 264.78125 C 589.398438 264.78125 586.074219 260.984375 586.074219 256.714844 L 586.074219 140.929688 C 586.074219 126.222656 574.207031 114.832031 559.964844 114.832031 L 509.640625 114.832031 C 504.894531 114.832031 501.570312 111.035156 501.570312 106.765625 C 501.570312 102.496094 504.894531 98.699219 509.640625 98.699219 L 559.964844 98.699219 C 583.226562 98.699219 601.738281 117.679688 601.738281 140.929688 L 601.738281 256.714844 C 601.738281 260.984375 598.417969 264.78125 594.144531 264.78125 Z M 594.144531 264.78125 " fill-opacity="1" fill-rule="evenodd"/><path fill="#000000" d="M 474.511719 149.472656 C 450.773438 149.472656 431.785156 130.492188 431.785156 106.765625 C 431.785156 83.039062 450.773438 64.058594 474.511719 64.058594 C 498.246094 64.058594 517.238281 83.039062 517.238281 106.765625 C 517.238281 130.492188 498.246094 149.472656 474.511719 149.472656 Z M 474.511719 149.472656 " fill-opacity="1" fill-rule="evenodd"/><path fill="#000000" d="M 1042.296875 326.941406 L 893.230469 326.941406 C 888.957031 326.941406 885.160156 323.144531 885.160156 318.875 C 885.160156 314.605469 888.957031 311.28125 893.230469 311.28125 L 1042.296875 311.28125 C 1046.570312 311.28125 1049.894531 314.605469 1049.894531 318.875 C 1049.894531 323.144531 1046.570312 326.941406 1042.296875 326.941406 Z M 1042.296875 326.941406 " fill-opacity="1" fill-rule="evenodd"/><g clip-path="url(#917f6c6d18)"><path fill="#000000" d="M 1076.953125 362.054688 C 1053.691406 362.054688 1034.226562 342.601562 1034.226562 318.875 C 1034.226562 295.148438 1053.691406 276.167969 1076.953125 276.167969 C 1100.691406 276.167969 1120.15625 295.148438 1120.15625 318.875 C 1120.15625 342.601562 1100.691406 362.054688 1076.953125 362.054688 Z M 1076.953125 362.054688 " fill-opacity="1" fill-rule="evenodd"/></g><path fill="#000000" d="M 937.855469 412.828125 L 893.230469 412.828125 C 888.957031 412.828125 885.160156 409.507812 885.160156 404.761719 C 885.160156 400.492188 888.957031 397.171875 893.230469 397.171875 L 937.855469 397.171875 C 942.128906 397.171875 945.453125 400.492188 945.453125 404.761719 C 945.453125 409.507812 942.128906 412.828125 937.855469 412.828125 Z M 937.855469 412.828125 " fill-opacity="1" fill-rule="evenodd"/><path fill="#000000" d="M 972.511719 447.945312 C 949.25 447.945312 929.785156 428.488281 929.785156 404.761719 C 929.785156 381.511719 949.25 362.054688 972.511719 362.054688 C 996.25 362.054688 1015.710938 381.511719 1015.710938 404.761719 C 1015.710938 428.488281 996.25 447.945312 972.511719 447.945312 Z M 972.511719 447.945312 " fill-opacity="1" fill-rule="evenodd"/><path fill="#000000" d="M 1042.296875 498.242188 L 893.230469 498.242188 C 888.957031 498.242188 885.160156 494.921875 885.160156 490.175781 C 885.160156 485.90625 888.957031 482.582031 893.230469 482.582031 L 1042.296875 482.582031 C 1046.570312 482.582031 1049.894531 485.90625 1049.894531 490.175781 C 1049.894531 494.921875 1046.570312 498.242188 1042.296875 498.242188 Z M 1042.296875 498.242188 " fill-opacity="1" fill-rule="evenodd"/><g clip-path="url(#8527369bb6)"><path fill="#000000" d="M 1076.953125 533.355469 C 1053.691406 533.355469 1034.226562 513.902344 1034.226562 490.175781 C 1034.226562 466.925781 1053.691406 447.46875 1076.953125 447.46875 C 1100.691406 447.46875 1120.15625 466.925781 1120.15625 490.175781 C 1120.15625 513.902344 1100.691406 533.355469 1076.953125 533.355469 Z M 1076.953125 533.355469 " fill-opacity="1" fill-rule="evenodd"/></g><path fill="#000000" d="M 678.171875 739.773438 C 673.902344 739.773438 670.101562 736.449219 670.101562 732.179688 L 670.101562 553.285156 C 670.101562 548.542969 673.902344 545.21875 678.171875 545.21875 C 682.445312 545.21875 685.769531 548.542969 685.769531 553.285156 L 685.769531 732.179688 C 685.769531 736.449219 682.445312 739.773438 678.171875 739.773438 Z M 678.171875 739.773438 " fill-opacity="1" fill-rule="evenodd"/><path fill="#000000" d="M 678.171875 810 C 654.4375 810 634.972656 790.542969 634.972656 766.820312 C 634.972656 743.09375 654.4375 724.113281 678.171875 724.113281 C 701.910156 724.113281 720.898438 743.09375 720.898438 766.820312 C 720.898438 790.542969 701.910156 810 678.171875 810 Z M 678.171875 810 " fill-opacity="1" fill-rule="evenodd"/><path fill="#000000" d="M 762.203125 634.902344 C 757.929688 634.902344 754.132812 631.582031 754.132812 627.3125 L 754.132812 553.285156 C 754.132812 548.542969 757.929688 545.21875 762.203125 545.21875 C 766.472656 545.21875 770.273438 548.542969 770.273438 553.285156 L 770.273438 627.3125 C 770.273438 631.582031 766.472656 634.902344 762.203125 634.902344 Z M 762.203125 634.902344 " fill-opacity="1" fill-rule="evenodd"/><path fill="#000000" d="M 762.203125 705.132812 C 738.464844 705.132812 719.476562 685.675781 719.476562 661.949219 C 719.476562 638.226562 738.464844 619.246094 762.203125 619.246094 C 785.9375 619.246094 804.929688 638.226562 804.929688 661.949219 C 804.929688 685.675781 785.9375 705.132812 762.203125 705.132812 Z M 762.203125 705.132812 " fill-opacity="1" fill-rule="evenodd"/><path fill="#000000" d="M 930.734375 710.824219 L 880.410156 710.824219 C 857.148438 710.824219 838.160156 692.320312 838.160156 669.070312 L 838.160156 553.285156 C 838.160156 548.542969 841.957031 545.21875 846.230469 545.21875 C 850.503906 545.21875 854.300781 548.542969 854.300781 553.285156 L 854.300781 669.070312 C 854.300781 683.304688 866.167969 695.167969 880.410156 695.167969 L 930.734375 695.167969 C 935.007812 695.167969 938.804688 698.488281 938.804688 703.234375 C 938.804688 707.503906 935.007812 710.824219 930.734375 710.824219 Z M 930.734375 710.824219 " fill-opacity="1" fill-rule="evenodd"/><path fill="#000000" d="M 965.863281 745.941406 C 942.128906 745.941406 922.664062 726.484375 922.664062 703.234375 C 922.664062 679.507812 942.128906 660.054688 965.863281 660.054688 C 989.601562 660.054688 1008.589844 679.507812 1008.589844 703.234375 C 1008.589844 726.484375 989.601562 745.941406 965.863281 745.941406 Z M 965.863281 745.941406 " fill-opacity="1" fill-rule="evenodd"/><path fill="#000000" d="M 559.964844 710.824219 L 509.640625 710.824219 C 504.894531 710.824219 501.570312 707.503906 501.570312 703.234375 C 501.570312 698.488281 504.894531 695.167969 509.640625 695.167969 L 559.964844 695.167969 C 574.207031 695.167969 586.074219 683.304688 586.074219 669.070312 L 586.074219 553.285156 C 586.074219 548.542969 589.398438 545.21875 594.144531 545.21875 C 598.417969 545.21875 601.738281 548.542969 601.738281 553.285156 L 601.738281 669.070312 C 601.738281 692.320312 583.226562 710.824219 559.964844 710.824219 Z M 559.964844 710.824219 " fill-opacity="1" fill-rule="evenodd"/><path fill="#000000" d="M 474.511719 745.941406 C 450.773438 745.941406 431.785156 726.484375 431.785156 703.234375 C 431.785156 679.507812 450.773438 660.054688 474.511719 660.054688 C 498.246094 660.054688 517.238281 679.507812 517.238281 703.234375 C 517.238281 726.484375 498.246094 745.941406 474.511719 745.941406 Z M 474.511719 745.941406 " fill-opacity="1" fill-rule="evenodd"/><path fill="#000000" d="M 547.144531 326.941406 L 398.078125 326.941406 C 393.804688 326.941406 390.007812 323.621094 390.007812 319.351562 C 390.007812 314.605469 393.804688 311.28125 398.078125 311.28125 L 547.144531 311.28125 C 551.417969 311.28125 554.742188 314.605469 554.742188 319.351562 C 554.742188 323.621094 551.417969 326.941406 547.144531 326.941406 Z M 547.144531 326.941406 " fill-opacity="1" fill-rule="evenodd"/><g clip-path="url(#206104901f)"><path fill="#000000" d="M 362.945312 362.054688 C 339.683594 362.054688 320.21875 343.074219 320.21875 319.351562 C 320.21875 295.625 339.683594 276.167969 362.945312 276.167969 C 386.683594 276.167969 406.148438 295.625 406.148438 319.351562 C 406.148438 343.074219 386.683594 362.054688 362.945312 362.054688 Z M 362.945312 362.054688 " fill-opacity="1" fill-rule="evenodd"/></g><path fill="#000000" d="M 547.144531 412.828125 L 502.519531 412.828125 C 498.246094 412.828125 494.449219 409.507812 494.449219 405.238281 C 494.449219 400.964844 498.246094 397.171875 502.519531 397.171875 L 547.144531 397.171875 C 551.417969 397.171875 554.742188 400.964844 554.742188 405.238281 C 554.742188 409.507812 551.417969 412.828125 547.144531 412.828125 Z M 547.144531 412.828125 " fill-opacity="1" fill-rule="evenodd"/><path fill="#000000" d="M 467.390625 447.945312 C 443.652344 447.945312 424.664062 428.964844 424.664062 405.238281 C 424.664062 381.511719 443.652344 362.054688 467.390625 362.054688 C 491.125 362.054688 510.589844 381.511719 510.589844 405.238281 C 510.589844 428.964844 491.125 447.945312 467.390625 447.945312 Z M 467.390625 447.945312 " fill-opacity="1" fill-rule="evenodd"/><path fill="#000000" d="M 547.144531 498.71875 L 398.078125 498.71875 C 393.804688 498.71875 390.007812 494.921875 390.007812 490.648438 C 390.007812 486.378906 393.804688 482.582031 398.078125 482.582031 L 547.144531 482.582031 C 551.417969 482.582031 554.742188 486.378906 554.742188 490.648438 C 554.742188 494.921875 551.417969 498.71875 547.144531 498.71875 Z M 547.144531 498.71875 " fill-opacity="1" fill-rule="evenodd"/><g clip-path="url(#7e5669c9d5)"><path fill="#000000" d="M 362.945312 533.355469 C 339.683594 533.355469 320.21875 514.375 320.21875 490.648438 C 320.21875 466.925781 339.683594 447.945312 362.945312 447.945312 C 386.683594 447.945312 406.148438 466.925781 406.148438 490.648438 C 406.148438 514.375 386.683594 533.355469 362.945312 533.355469 Z M 362.945312 533.355469 " fill-opacity="1" fill-rule="evenodd"/></g></svg>