<svg xmlns="http://www.w3.org/2000/svg" xmlns:xlink="http://www.w3.org/1999/xlink" width="1920" zoomAndPan="magnify" viewBox="0 0 1440 809.999993" height="1080" preserveAspectRatio="xMidYMid meet" version="1.0"><path fill="#000000" d="M 499.636719 49.023438 C 455.996094 50.046875 419.632812 83.800781 419.632812 126.171875 C 419.632812 135.96875 423.535156 142.828125 426.46875 150.5625 L 318.6875 150.5625 C 318.019531 150.5625 317.355469 150.597656 316.691406 150.660156 C 316.027344 150.726562 315.371094 150.824219 314.714844 150.953125 C 314.0625 151.085938 313.417969 151.246094 312.78125 151.441406 C 312.140625 151.632812 311.515625 151.859375 310.898438 152.113281 C 310.285156 152.367188 309.683594 152.652344 309.09375 152.964844 C 308.507812 153.28125 307.933594 153.621094 307.382812 153.992188 C 306.828125 154.363281 306.292969 154.757812 305.777344 155.179688 C 305.261719 155.605469 304.769531 156.050781 304.296875 156.523438 C 303.828125 156.992188 303.378906 157.484375 302.957031 158 C 302.535156 158.515625 302.136719 159.050781 301.765625 159.605469 C 301.398438 160.15625 301.054688 160.730469 300.742188 161.316406 C 300.425781 161.902344 300.140625 162.503906 299.886719 163.121094 C 299.632812 163.734375 299.40625 164.363281 299.214844 165 C 299.019531 165.636719 298.859375 166.28125 298.730469 166.9375 C 298.597656 167.589844 298.5 168.246094 298.4375 168.910156 C 298.371094 169.574219 298.335938 170.238281 298.335938 170.902344 L 298.335938 302.679688 L 286.136719 305.976562 L 284.984375 306.453125 C 269.460938 312.695312 257.125 323.84375 248.179688 337.199219 L 200.449219 402.988281 C 200.058594 403.527344 199.695312 404.085938 199.355469 404.664062 C 199.019531 405.238281 198.714844 405.828125 198.433594 406.433594 C 198.15625 407.039062 197.90625 407.660156 197.691406 408.289062 C 197.472656 408.917969 197.285156 409.558594 197.132812 410.207031 C 196.976562 410.855469 196.855469 411.511719 196.761719 412.171875 C 196.671875 412.832031 196.613281 413.496094 196.589844 414.160156 C 196.566406 414.828125 196.570312 415.496094 196.613281 416.160156 C 196.652344 416.824219 196.726562 417.488281 196.832031 418.144531 C 196.9375 418.804688 197.074219 419.457031 197.242188 420.101562 C 197.414062 420.746094 197.613281 421.382812 197.847656 422.007812 C 198.078125 422.632812 198.339844 423.242188 198.632812 423.84375 C 198.925781 424.441406 199.246094 425.027344 199.597656 425.59375 C 199.945312 426.160156 200.324219 426.710938 200.726562 427.242188 C 201.128906 427.773438 201.558594 428.28125 202.011719 428.769531 C 202.46875 429.261719 202.945312 429.726562 203.445312 430.167969 C 203.941406 430.609375 204.464844 431.023438 205.003906 431.414062 C 205.542969 431.804688 206.101562 432.167969 206.679688 432.503906 C 207.257812 432.839844 207.847656 433.148438 208.453125 433.425781 C 209.058594 433.703125 209.679688 433.949219 210.308594 434.167969 C 210.941406 434.382812 211.582031 434.570312 212.230469 434.722656 C 212.878906 434.878906 213.535156 435 214.195312 435.089844 C 214.855469 435.179688 215.519531 435.234375 216.1875 435.257812 C 216.855469 435.28125 217.519531 435.273438 218.1875 435.234375 C 218.851562 435.191406 219.515625 435.117188 220.171875 435.011719 C 220.832031 434.90625 221.484375 434.765625 222.128906 434.597656 C 222.773438 434.425781 223.40625 434.226562 224.03125 433.992188 C 224.65625 433.757812 225.269531 433.496094 225.871094 433.203125 C 226.46875 432.910156 227.050781 432.589844 227.621094 432.238281 C 228.1875 431.886719 228.738281 431.511719 229.265625 431.105469 C 229.796875 430.703125 230.308594 430.273438 230.796875 429.816406 C 231.285156 429.363281 231.75 428.886719 232.1875 428.386719 C 232.628906 427.886719 233.046875 427.367188 233.4375 426.824219 L 281.804688 360.125 L 282.003906 359.804688 C 286.980469 352.367188 291.933594 348.785156 298.335938 345.78125 L 298.335938 461.386719 L 350.679688 496.269531 L 461.921875 402.113281 L 462.082031 401.957031 C 471.40625 393.660156 484.339844 394.386719 493.121094 403.742188 L 493.398438 404.0625 L 493.714844 404.378906 C 503.585938 414.035156 504.699219 430.453125 495.78125 442.835938 L 495.664062 442.992188 L 387.679688 599.199219 C 370.316406 623.042969 345.621094 638.84375 318.25 645.480469 L 317.929688 645.5625 L 211.539062 675 C 210.867188 675.148438 210.203125 675.332031 209.550781 675.546875 C 208.898438 675.765625 208.257812 676.015625 207.632812 676.296875 C 207.003906 676.578125 206.394531 676.890625 205.796875 677.234375 C 205.203125 677.578125 204.625 677.949219 204.066406 678.351562 C 203.507812 678.753906 202.972656 679.183594 202.457031 679.636719 C 201.945312 680.09375 201.453125 680.574219 200.988281 681.082031 C 200.523438 681.585938 200.082031 682.117188 199.671875 682.664062 C 199.257812 683.214844 198.875 683.785156 198.523438 684.375 C 198.167969 684.964844 197.84375 685.570312 197.550781 686.191406 C 197.257812 686.8125 196.996094 687.449219 196.769531 688.097656 C 196.542969 688.746094 196.347656 689.402344 196.183594 690.074219 C 196.023438 690.742188 195.894531 691.414062 195.800781 692.097656 C 195.707031 692.777344 195.648438 693.460938 195.625 694.148438 C 195.601562 694.835938 195.613281 695.523438 195.660156 696.207031 C 195.703125 696.894531 195.785156 697.574219 195.898438 698.253906 C 196.015625 698.929688 196.164062 699.601562 196.347656 700.265625 C 196.53125 700.925781 196.746094 701.578125 196.996094 702.21875 C 197.242188 702.859375 197.523438 703.488281 197.835938 704.097656 C 198.148438 704.710938 198.492188 705.304688 198.863281 705.882812 C 199.238281 706.460938 199.640625 707.019531 200.070312 707.554688 C 200.496094 708.09375 200.953125 708.605469 201.433594 709.097656 C 201.917969 709.589844 202.421875 710.054688 202.949219 710.492188 C 203.480469 710.933594 204.027344 711.34375 204.597656 711.726562 C 205.167969 712.113281 205.757812 712.464844 206.363281 712.789062 C 206.96875 713.113281 207.589844 713.40625 208.226562 713.667969 C 208.863281 713.929688 209.511719 714.160156 210.171875 714.355469 C 210.828125 714.550781 211.496094 714.710938 212.171875 714.839844 C 212.847656 714.96875 213.527344 715.0625 214.214844 715.121094 C 214.898438 715.179688 215.585938 715.203125 216.273438 715.195312 C 216.960938 715.183594 217.648438 715.140625 218.328125 715.058594 C 219.011719 714.980469 219.691406 714.863281 220.363281 714.714844 C 221.03125 714.566406 221.695312 714.386719 222.347656 714.171875 L 327.828125 685.011719 C 357.839844 677.730469 385.625 661.886719 407.472656 638.730469 L 426.46875 638.730469 C 423.535156 646.460938 419.632812 653.324219 419.632812 663.121094 C 419.632812 711.554688 467.171875 748.746094 518.753906 738.640625 C 549.871094 732.625 574.460938 708.613281 581.191406 677.859375 C 584.605469 663.835938 582.164062 650.765625 577.8125 638.730469 L 813.09375 638.730469 C 810.160156 646.460938 806.257812 653.324219 806.257812 663.121094 C 806.257812 711.554688 853.796875 748.746094 905.378906 738.640625 C 936.496094 732.625 961.085938 708.613281 967.816406 677.859375 C 971.226562 663.835938 968.789062 650.765625 964.4375 638.730469 L 1003.1875 638.730469 C 1025.03125 661.875 1052.796875 677.734375 1082.792969 685.011719 L 1188.230469 714.171875 C 1188.882812 714.378906 1189.539062 714.550781 1190.207031 714.691406 C 1190.875 714.835938 1191.550781 714.941406 1192.226562 715.015625 C 1192.90625 715.089844 1193.585938 715.128906 1194.269531 715.132812 C 1194.953125 715.136719 1195.632812 715.109375 1196.3125 715.046875 C 1196.992188 714.984375 1197.667969 714.886719 1198.339844 714.753906 C 1199.007812 714.621094 1199.667969 714.457031 1200.324219 714.261719 C 1200.976562 714.0625 1201.617188 713.832031 1202.25 713.570312 C 1202.878906 713.308594 1203.492188 713.011719 1204.09375 712.6875 C 1204.695312 712.363281 1205.277344 712.011719 1205.84375 711.628906 C 1206.40625 711.246094 1206.953125 710.835938 1207.476562 710.398438 C 1208 709.960938 1208.5 709.496094 1208.976562 709.007812 C 1209.453125 708.519531 1209.90625 708.007812 1210.332031 707.476562 C 1210.757812 706.941406 1211.15625 706.390625 1211.523438 705.816406 C 1211.894531 705.242188 1212.234375 704.652344 1212.546875 704.042969 C 1212.855469 703.4375 1213.136719 702.8125 1213.382812 702.179688 C 1213.632812 701.542969 1213.847656 700.894531 1214.027344 700.238281 C 1214.210938 699.582031 1214.359375 698.914062 1214.476562 698.242188 C 1214.59375 697.570312 1214.675781 696.894531 1214.722656 696.214844 C 1214.769531 695.53125 1214.785156 694.851562 1214.761719 694.167969 C 1214.742188 693.488281 1214.6875 692.808594 1214.597656 692.132812 C 1214.507812 691.453125 1214.386719 690.785156 1214.226562 690.121094 C 1214.070312 689.457031 1213.882812 688.800781 1213.660156 688.15625 C 1213.4375 687.511719 1213.183594 686.878906 1212.894531 686.257812 C 1212.609375 685.640625 1212.292969 685.035156 1211.945312 684.449219 C 1211.597656 683.863281 1211.222656 683.292969 1210.820312 682.742188 C 1210.414062 682.191406 1209.984375 681.664062 1209.527344 681.160156 C 1209.066406 680.652344 1208.585938 680.167969 1208.082031 679.710938 C 1207.574219 679.253906 1207.046875 678.824219 1206.496094 678.417969 C 1205.949219 678.011719 1205.378906 677.636719 1204.792969 677.289062 C 1204.203125 676.941406 1203.601562 676.625 1202.980469 676.335938 C 1202.363281 676.050781 1201.730469 675.792969 1201.085938 675.570312 C 1200.441406 675.347656 1199.785156 675.15625 1199.121094 675 L 1092.6875 645.5625 L 1092.371094 645.480469 C 1065 638.839844 1040.304688 623 1022.9375 599.160156 L 914.957031 442.992188 L 914.835938 442.835938 C 905.933594 430.484375 907.082031 413.988281 916.941406 404.339844 L 917.222656 404.023438 L 917.539062 403.703125 C 926.316406 394.335938 939.207031 393.613281 948.539062 401.917969 L 948.738281 402.113281 L 1059.941406 496.269531 L 1112.28125 461.386719 L 1112.28125 345.78125 C 1118.671875 348.765625 1123.625 352.390625 1128.617188 359.84375 L 1128.816406 360.164062 L 1177.183594 426.824219 C 1177.574219 427.367188 1177.988281 427.886719 1178.429688 428.386719 C 1178.871094 428.886719 1179.335938 429.363281 1179.824219 429.820312 C 1180.3125 430.273438 1180.820312 430.703125 1181.351562 431.109375 C 1181.882812 431.511719 1182.429688 431.890625 1183 432.238281 C 1183.566406 432.589844 1184.148438 432.914062 1184.75 433.207031 C 1185.347656 433.5 1185.960938 433.761719 1186.585938 433.996094 C 1187.210938 434.226562 1187.847656 434.429688 1188.492188 434.601562 C 1189.136719 434.769531 1189.789062 434.910156 1190.445312 435.015625 C 1191.105469 435.121094 1191.769531 435.195312 1192.433594 435.238281 C 1193.101562 435.277344 1193.765625 435.285156 1194.433594 435.261719 C 1195.097656 435.238281 1195.761719 435.179688 1196.425781 435.089844 C 1197.085938 435.003906 1197.742188 434.878906 1198.390625 434.726562 C 1199.039062 434.574219 1199.679688 434.386719 1200.3125 434.171875 C 1200.941406 433.953125 1201.558594 433.707031 1202.167969 433.429688 C 1202.773438 433.152344 1203.363281 432.84375 1203.941406 432.507812 C 1204.519531 432.171875 1205.078125 431.808594 1205.617188 431.417969 C 1206.15625 431.027344 1206.679688 430.613281 1207.179688 430.171875 C 1207.679688 429.726562 1208.15625 429.261719 1208.609375 428.773438 C 1209.0625 428.285156 1209.492188 427.777344 1209.894531 427.246094 C 1210.300781 426.714844 1210.675781 426.164062 1211.027344 425.597656 C 1211.375 425.027344 1211.695312 424.445312 1211.988281 423.84375 C 1212.28125 423.246094 1212.542969 422.632812 1212.777344 422.007812 C 1213.007812 421.382812 1213.207031 420.746094 1213.378906 420.101562 C 1213.546875 419.457031 1213.683594 418.804688 1213.789062 418.148438 C 1213.894531 417.488281 1213.96875 416.828125 1214.007812 416.160156 C 1214.050781 415.496094 1214.058594 414.828125 1214.03125 414.164062 C 1214.007812 413.496094 1213.949219 412.832031 1213.859375 412.171875 C 1213.765625 411.511719 1213.644531 410.855469 1213.488281 410.207031 C 1213.335938 409.558594 1213.148438 408.917969 1212.929688 408.289062 C 1212.710938 407.660156 1212.464844 407.039062 1212.1875 406.433594 C 1211.90625 405.828125 1211.597656 405.238281 1211.261719 404.664062 C 1210.925781 404.085938 1210.5625 403.527344 1210.167969 402.988281 L 1162.4375 337.199219 C 1153.5 323.851562 1141.15625 312.683594 1125.59375 306.453125 L 1124.484375 306.015625 L 1112.28125 302.71875 L 1112.28125 170.902344 C 1112.28125 170.238281 1112.25 169.574219 1112.183594 168.910156 C 1112.117188 168.246094 1112.019531 167.589844 1111.890625 166.9375 C 1111.761719 166.28125 1111.597656 165.636719 1111.40625 165 C 1111.210938 164.363281 1110.988281 163.734375 1110.730469 163.121094 C 1110.476562 162.503906 1110.191406 161.902344 1109.878906 161.316406 C 1109.5625 160.730469 1109.222656 160.15625 1108.851562 159.605469 C 1108.480469 159.050781 1108.085938 158.515625 1107.660156 158 C 1107.238281 157.484375 1106.792969 156.992188 1106.320312 156.523438 C 1105.851562 156.050781 1105.355469 155.605469 1104.839844 155.179688 C 1104.328125 154.757812 1103.792969 154.363281 1103.238281 153.992188 C 1102.683594 153.621094 1102.113281 153.28125 1101.523438 152.964844 C 1100.9375 152.652344 1100.335938 152.367188 1099.71875 152.113281 C 1099.105469 151.859375 1098.476562 151.632812 1097.839844 151.441406 C 1097.203125 151.246094 1096.554688 151.085938 1095.902344 150.953125 C 1095.25 150.824219 1094.589844 150.726562 1093.925781 150.660156 C 1093.265625 150.597656 1092.597656 150.5625 1091.933594 150.5625 L 964.4375 150.5625 C 968.789062 138.527344 971.226562 125.457031 967.816406 111.433594 C 961.085938 80.679688 936.496094 56.667969 905.378906 50.652344 L 905.339844 50.652344 C 853.773438 40.574219 806.257812 77.75 806.257812 126.171875 C 806.257812 135.96875 810.160156 142.828125 813.09375 150.5625 L 577.8125 150.5625 C 582.164062 138.527344 584.605469 125.457031 581.191406 111.433594 C 574.460938 80.679688 549.871094 56.667969 518.753906 50.652344 L 518.714844 50.652344 C 512.269531 49.390625 505.871094 48.875 499.636719 49.023438 Z M 500.3125 89.542969 C 503.707031 89.519531 507.25 89.855469 510.925781 90.574219 C 510.953125 90.589844 510.976562 90.601562 511.003906 90.617188 C 526.15625 93.539062 538.429688 105.613281 541.566406 120.253906 C 541.601562 120.476562 541.640625 120.703125 541.6875 120.925781 C 543.855469 129.597656 541.996094 136.867188 536.996094 144.644531 L 537.710938 143.613281 C 531.550781 152.011719 530.339844 163.867188 534.09375 172.8125 C 537.851562 181.753906 545.722656 188.382812 555.238281 190.6875 C 556.804688 191.0625 558.394531 191.246094 560.007812 191.246094 L 664.613281 191.246094 L 664.613281 355.394531 C 664.597656 356.464844 664.667969 357.53125 664.824219 358.589844 C 664.976562 359.648438 665.214844 360.6875 665.53125 361.710938 C 665.851562 362.730469 666.246094 363.71875 666.722656 364.679688 C 667.195312 365.636719 667.742188 366.554688 668.363281 367.425781 C 668.980469 368.300781 669.664062 369.117188 670.414062 369.882812 C 671.164062 370.648438 671.964844 371.347656 672.824219 371.988281 C 673.683594 372.625 674.589844 373.191406 675.539062 373.6875 C 676.488281 374.183594 677.46875 374.601562 678.484375 374.941406 C 688.171875 381.742188 699.988281 384.925781 710.675781 378.515625 L 708.648438 379.589844 C 716.332031 376.097656 721.949219 374.304688 729.710938 374.304688 C 741.785156 374.304688 752.253906 379.316406 758.683594 386.304688 C 765.113281 393.292969 767.925781 401.371094 765.480469 411.769531 C 765.46875 411.808594 765.453125 411.847656 765.441406 411.886719 C 763.121094 422.019531 752.269531 432.398438 736.308594 435.246094 C 736.125 435.285156 735.9375 435.324219 735.753906 435.367188 C 726.222656 437.351562 717.769531 435.480469 709.839844 431.234375 L 710.675781 431.710938 C 699.945312 425.273438 688.28125 428.078125 678.640625 434.613281 C 678.640625 434.613281 678.601562 434.613281 678.601562 434.613281 C 677.578125 434.949219 676.589844 435.363281 675.628906 435.855469 C 674.671875 436.351562 673.761719 436.917969 672.894531 437.554688 C 672.027344 438.195312 671.214844 438.894531 670.457031 439.664062 C 669.703125 440.429688 669.011719 441.253906 668.386719 442.128906 C 667.761719 443.007812 667.210938 443.929688 666.730469 444.894531 C 666.253906 445.859375 665.851562 446.855469 665.53125 447.882812 C 665.210938 448.910156 664.972656 449.957031 664.820312 451.023438 C 664.664062 452.089844 664.597656 453.160156 664.613281 454.238281 L 664.613281 598.046875 L 560.007812 598.046875 C 558.394531 598.042969 556.804688 598.230469 555.238281 598.605469 C 545.722656 600.910156 537.851562 607.535156 534.09375 616.480469 C 530.339844 625.425781 531.550781 637.28125 537.710938 645.679688 L 536.996094 644.648438 C 541.996094 652.425781 543.855469 659.695312 541.6875 668.363281 C 541.640625 668.589844 541.601562 668.8125 541.566406 669.039062 C 538.429688 683.679688 526.15625 695.753906 511.003906 698.675781 C 510.976562 698.691406 510.953125 698.703125 510.925781 698.714844 C 481.519531 704.476562 460.332031 685.0625 460.332031 663.121094 C 460.332031 656.089844 462.234375 650.960938 466.371094 643.375 L 465.179688 645.324219 C 471.050781 636.941406 472.246094 625.070312 468.082031 615.925781 C 463.914062 606.777344 455.242188 600.476562 445.785156 598.484375 C 444.394531 598.191406 442.992188 598.046875 441.574219 598.046875 L 437.957031 598.046875 L 528.808594 466.632812 C 548.78125 438.902344 546.90625 400.070312 522.332031 375.695312 C 499.195312 351.460938 460.347656 349.066406 435.054688 371.566406 L 347.738281 445.417969 L 339.035156 439.617188 L 339.035156 191.246094 L 441.574219 191.246094 C 442.992188 191.246094 444.394531 191.101562 445.785156 190.808594 C 455.242188 188.816406 463.914062 182.511719 468.082031 173.367188 C 472.246094 164.21875 471.050781 152.351562 465.179688 143.96875 L 466.371094 145.914062 C 462.234375 138.332031 460.332031 133.203125 460.332031 126.171875 C 460.332031 106.972656 476.558594 89.699219 500.3125 89.542969 Z M 886.9375 89.542969 C 890.332031 89.519531 893.871094 89.855469 897.546875 90.574219 C 897.574219 90.589844 897.601562 90.601562 897.628906 90.617188 C 912.777344 93.539062 925.050781 105.613281 928.191406 120.253906 C 928.226562 120.476562 928.265625 120.703125 928.308594 120.925781 C 930.476562 129.597656 928.621094 136.867188 923.621094 144.644531 L 924.335938 143.613281 C 918.171875 152.011719 916.964844 163.867188 920.71875 172.8125 C 924.472656 181.753906 932.347656 188.382812 941.863281 190.6875 C 943.429688 191.0625 945.019531 191.246094 946.632812 191.246094 L 1071.585938 191.246094 L 1071.585938 439.617188 L 1062.878906 445.417969 L 975.605469 371.523438 C 975.605469 371.523438 975.5625 371.523438 975.5625 371.523438 C 950.257812 349.042969 911.367188 351.390625 888.25 375.695312 C 863.714844 400.070312 861.859375 438.847656 881.808594 466.550781 C 881.808594 466.550781 881.808594 466.589844 881.808594 466.589844 L 972.664062 598.046875 L 946.632812 598.046875 C 945.019531 598.042969 943.429688 598.230469 941.863281 598.605469 C 932.347656 600.910156 924.472656 607.535156 920.71875 616.480469 C 916.964844 625.425781 918.171875 637.28125 924.335938 645.679688 L 923.621094 644.648438 C 928.621094 652.425781 930.476562 659.695312 928.308594 668.363281 C 928.265625 668.589844 928.226562 668.8125 928.191406 669.039062 C 925.050781 683.679688 912.777344 695.753906 897.628906 698.675781 C 897.601562 698.691406 897.574219 698.703125 897.546875 698.714844 C 868.144531 704.476562 846.953125 685.0625 846.953125 663.121094 C 846.953125 656.089844 848.855469 650.960938 852.996094 643.375 L 851.804688 645.324219 C 857.671875 636.941406 858.871094 625.070312 854.703125 615.925781 C 850.539062 606.777344 841.863281 600.476562 832.410156 598.484375 C 831.019531 598.191406 829.617188 598.046875 828.195312 598.046875 L 705.308594 598.046875 L 705.308594 472.152344 C 717.132812 475.894531 729.90625 477.972656 743.703125 475.171875 C 773.207031 469.8125 798.496094 449.777344 805.105469 420.945312 C 810.542969 397.617188 803.15625 374.539062 788.652344 358.773438 C 774.121094 342.980469 752.839844 333.625 729.710938 333.625 C 720.039062 333.625 713.007812 336.878906 705.308594 339.386719 L 705.308594 191.246094 L 828.195312 191.246094 C 829.617188 191.246094 831.019531 191.101562 832.410156 190.808594 C 841.863281 188.816406 850.539062 182.511719 854.703125 173.367188 C 858.871094 164.21875 857.671875 152.351562 851.804688 143.96875 L 852.996094 145.914062 C 848.855469 138.332031 846.953125 133.203125 846.953125 126.171875 C 846.953125 106.972656 863.183594 89.699219 886.9375 89.542969 Z M 886.9375 89.542969 " fill-opacity="1" fill-rule="nonzero"/></svg>